<svg xmlns="http://www.w3.org/2000/svg" viewBox="0 0 1190.55 1190.55"><defs><style>.cls-1{fill:#044e97;}.cls-2{fill:#4e4c4c;}</style></defs><g id="Logo_-positive" data-name="Logo -positive"><path class="cls-1" d="M801,759.37l.3.14c-72.56,85.19-195.62,115.21-302,65.63S336.94,662,355.54,551.65c0,0,0,0,0,0h0l.57.28a68,68,0,0,0,67.92-6l65.37,30.48a119.08,119.08,0,0,0,206.94,96.5L762,703.45A68,68,0,0,0,801,759.37Z"/><path class="cls-1" d="M413.05,428.34h0s0,0,0,0c72.56-85.19,195.62-115.22,302-65.63S877.45,525.86,858.83,636.2l-.3-.14a68,68,0,0,0-67.6,5.82L725,611.14a119.09,119.09,0,0,0-206.76-96.41l-65.64-30.61a68,68,0,0,0-39-55.52Z"/><path class="cls-2" d="M1078.65,458.9a67.32,67.32,0,0,1-89.46,32.56A74.2,74.2,0,0,1,973,480.83a70.22,70.22,0,0,1-19.57-29.28A374.14,374.14,0,0,0,765.22,255c-166.42-77.61-360.61-22.78-463.8,121.23l111.64,52.06h0a68,68,0,0,0-57.49,123.29h0v0L160,460.44c-24.22-11.29-31.18-47.67-15.58-81.32l.23-.49C264.08,124.06,567.12,14.09,822.13,133a508.36,508.36,0,0,1,256.29,268.5A67.18,67.18,0,0,1,1078.65,458.9Z"/><path class="cls-2" d="M1070.28,808.86l-.23.49C950.57,1063.91,647.53,1173.89,392.52,1055a508.38,508.38,0,0,1-256.3-268.5,67.33,67.33,0,0,1,89.24-90,74.09,74.09,0,0,1,16.22,10.63,70.16,70.16,0,0,1,19.57,29.28A374.21,374.21,0,0,0,449.43,932.94c166.41,77.6,360.61,22.77,463.8-121.24L801.59,759.64h0a68,68,0,0,0,57.49-123.3h0l195.6,91.21C1078.92,738.83,1085.88,775.21,1070.28,808.86Z"/></g></svg>